<svg id="Raggruppa_1" class="logo" data-name="Raggruppa 1" xmlns="http://www.w3.org/2000/svg"
            xmlns:xlink="http://www.w3.org/1999/xlink" viewBox="0 0 100.891 20.777">
            <defs>
              <linearGradient id="linear-gradient" y1="0.5" x2="1" y2="0.5" gradientUnits="objectBoundingBox">
                <stop offset="0" stop-color="#0000f9"></stop>
                <stop offset="0.116" stop-color="#0204f5"></stop>
                <stop offset="0.24" stop-color="#0911ec"></stop>
                <stop offset="0.368" stop-color="#1526dc"></stop>
                <stop offset="0.488" stop-color="#2542c8"></stop>
                <stop offset="0.635" stop-color="#4174a2"></stop>
                <stop offset="0.968" stop-color="#88f245"></stop>
                <stop offset="1" stop-color="#8fff3c"></stop>
              </linearGradient>
            </defs>

            <path id="Tracciato_2" data-name="Tracciato 2"
              d="M202.757,457.312h0a4.622,4.622,0,0,1-4.621,4.621H185.062a4.62,4.62,0,0,0-4.62,4.621v34.57a4.622,4.622,0,0,1-4.621,4.621h0a4.622,4.622,0,0,1-4.621-4.621V461.933a9.241,9.241,0,0,1,9.242-9.241h17.695A4.621,4.621,0,0,1,202.757,457.312Zm-38.917-5.344a5.2,5.2,0,0,0-3.469,1.326l-.048.04a3.1,3.1,0,0,1-2.438,1.1,3.225,3.225,0,0,1-2.343-1.006v.005a5.225,5.225,0,1,0-.059,7.577v.007a3.188,3.188,0,0,1,2.4-1.041,2.545,2.545,0,0,1,2.055.638,6.213,6.213,0,0,0,3.9,1.8,5.224,5.224,0,1,0,0-10.448Z"
              transform="translate(-146.697 -451.968)" fill="url(#linear-gradient)"></path>
</svg>